<svg fill="none" height="93" viewBox="0 0 75 93" width="75" xmlns="http://www.w3.org/2000/svg"><path d="m21.1739 15.6521-20.1739 11.1304 20.1739 12.1739 19.8261-12.1739z" stroke="#393939" stroke-linecap="round" stroke-linejoin="round"/><path d="m21.1739 8-20.1739 11.1304 20.1739 12.1739 19.8261-12.1739z" fill="#fff" stroke="#393939" stroke-linecap="round" stroke-linejoin="round"/><path d="m1 68.8261v-49.6957l20.1739 12.1739v49.6957z" fill="#393939"/><path d="m1 19.1304.25833-.4281c-.15442-.0932-.347065-.096-.504128-.0073-.157064.0886-.254202.255-.254202.4354zm0 49.6957h-.5c0 .1752.09168.3376.241668.4281zm20.1739 12.1739-.2583.4281c.1544.0932.347.096.5041.0073s.2542-.255.2542-.4354zm0-49.6957h.5c0-.1752-.0917-.3376-.2417-.4281zm-20.6739-12.1739v49.6957h1v-49.6957zm.241668 50.1238 20.173932 12.1739.5166-.8562-20.17387-12.1739zm20.932232 11.7458v-49.6957h-1v49.6957zm-.2417-50.1238-20.17387-12.1739-.516662.8562 20.173932 12.1739z" fill="#393939"/><g stroke="#393939" stroke-linecap="round" stroke-linejoin="round"><path d="m40.9999 69v-49.8696l-19.8261 12.1739v49.8696z" fill="#fff"/><path d="m61.4678 16.729-12.4678 6.8788 12.4678 7.5236 12.2528-7.5236z"/><path d="m61.4678 12-12.4678 6.8788 12.4678 7.5236 12.2528-7.5236z" fill="#69feda"/></g><path d="m49 49.5913v-30.7126l12.4678 7.5236v30.7127z" fill="#393939"/><path d="m49 18.8787.2583-.4281c-.1544-.0932-.347-.096-.5041-.0073-.1571.0886-.2542.255-.2542.4354zm0 30.7126h-.5c0 .1752.0917.3376.2417.4281zm12.4678 7.5237-.2584.428c.1544.0932.3471.096.5042.0074.157-.0887.2542-.2551.2542-.4354zm0-30.7127h.5c0-.1752-.0917-.3376-.2417-.4281zm-12.9678-7.5236v30.7126h1v-30.7126zm.2417 31.1407 12.4677 7.5236.5167-.8561-12.4678-7.5237zm13.2261 7.0956v-30.7127h-1v30.7127zm-.2417-31.1408-12.4678-7.5236-.5166.8562 12.4677 7.5236z" fill="#393939"/><path d="m73.7206 49.6988v-30.8201l-12.2528 7.5236v30.8201z" fill="#fff" stroke="#393939" stroke-linecap="round" stroke-linejoin="round"/><path d="m61 1v11" stroke="#393939" stroke-linecap="round" stroke-linejoin="round"/><path d="m21 81v11" stroke="#393939" stroke-linecap="round" stroke-linejoin="round"/></svg>