<svg fill="none" height="106" viewBox="0 0 82 106" width="82" xmlns="http://www.w3.org/2000/svg"><path d="m21.1739 19.6521-20.1739 11.1304 20.1739 12.1739 19.8261-12.1739z" stroke="#393939" stroke-linecap="round" stroke-linejoin="round" stroke-width=".563478"/><path d="m21.1739 12-20.1739 11.1304 20.1739 12.1739 19.8261-12.1739z" fill="#fff"/><path clip-rule="evenodd" d="m20.9324 11.5622c.1515-.0836.3354-.0829.4863.0018l19.8261 11.1304c.1546.0868.2516.249.2551.4263.0035.1772-.0872.3431-.2383.4358l-19.8261 12.1739c-.1593.0979-.3599.0986-.5199.002l-20.173932-12.1739c-.152949-.0923-.245038-.2592-.241574-.4378s.101955-.3418.258368-.4281zm-18.93252 11.5876 19.17182 11.5692 18.8413-11.5693-18.8412-10.5775z" fill="#393939" fill-rule="evenodd"/><path d="m1 30.7825v-7.6521l20.1739 12.1739v7.6522z" fill="#393939"/><path clip-rule="evenodd" d="m.754202 22.695c.157063-.0887.349708-.0859.504128.0073l20.17387 12.1739c.15.0905.2417.2529.2417.4281v7.6522c0 .1803-.0971.3467-.2542.4354-.1571.0886-.3497.0858-.5041-.0073l-20.173932-12.174c-.149988-.0905-.241668-.2529-.241668-.4281v-7.6521c0-.1804.097138-.3468.254202-.4354zm.745798 1.3211v6.4842l19.1739 11.5704v-6.4842z" fill="#393939" fill-rule="evenodd"/><path d="m40.9999 30.7825v-7.6521l-19.8261 12.1739v7.6522z" fill="#fff"/><path clip-rule="evenodd" d="m41.244 22.694c.158.0884.2559.2553.2559.4364v7.6521c0 .1738-.0902.3352-.2384.4261l-19.826 12.1739c-.1543.0948-.3478.0987-.5058.0103s-.2559-.2553-.2559-.4363v-7.6522c0-.1738.0903-.3352.2384-.4261l19.8261-12.1739c.1543-.0948.3477-.0987.5057-.0103zm-19.5702 12.89v6.4787l18.8261-11.5599v-6.4787z" fill="#393939" fill-rule="evenodd"/><path d="m61.1739 81.6521-20.1739 11.1304 20.1739 12.1735 19.8261-12.1735z" stroke="#393939" stroke-linecap="round" stroke-linejoin="round" stroke-width=".563478"/><path d="m61.1739 74-20.1739 11.1304 20.1739 12.1739 19.8261-12.1739z" fill="#fff"/><path clip-rule="evenodd" d="m60.9324 73.5622c.1515-.0836.3354-.0829.4863.0018l19.8261 11.1304c.1546.0868.2516.249.2551.4263.0035.1772-.0872.3431-.2383.4358l-19.8261 12.1739c-.1593.0979-.3599.0986-.5199.002l-20.1739-12.1739c-.153-.0923-.2451-.2592-.2416-.4378s.1019-.3418.2584-.4281zm-18.9325 11.5876 19.1718 11.5692 18.8413-11.5693-18.8412-10.5775z" fill="#393939" fill-rule="evenodd"/><path d="m41 92.7825v-7.6521l20.1739 12.1739v7.6517z" fill="#393939"/><path d="m41 85.1304.2583-.4281c-.1544-.0932-.347-.096-.5041-.0073-.1571.0886-.2542.255-.2542.4354zm0 7.6521h-.5c0 .1752.0917.3376.2417.4281zm20.1739 12.1735-.2583.429c.1544.093.347.096.5041.007s.2542-.255.2542-.436zm0-7.6517h.5c0-.1752-.0917-.3376-.2417-.4281zm-20.6739-12.1739v7.6521h1v-7.6521zm.2417 8.0802 20.1739 12.1744.5166-.857-20.1739-12.1735zm20.9322 11.7454v-7.6517h-1v7.6517zm-.2417-8.0798-20.1739-12.1739-.5166.8562 20.1739 12.1739z" fill="#393939"/><path d="m80.9999 92.7825v-7.6521l-19.8261 12.1739v7.6517z" fill="#fff"/><path clip-rule="evenodd" d="m81.244 84.694c.158.0884.2559.2553.2559.4364v7.6521c0 .1738-.0902.3352-.2384.4261l-19.826 12.1744c-.1543.094-.3478.098-.5058.01-.158-.089-.2559-.255-.2559-.437v-7.6517c0-.1738.0903-.3352.2384-.4261l19.8261-12.1739c.1543-.0948.3477-.0987.5057-.0103zm-19.5702 12.89v6.479l18.8261-11.5602v-6.4787z" fill="#393939" fill-rule="evenodd"/><path d="m41.1739 50.6521-20.1739 11.1304 20.1739 12.1739 19.8261-12.1739z" stroke="#393939" stroke-linecap="round" stroke-linejoin="round" stroke-width=".563478"/><path d="m41.1739 43-20.1739 11.1304 20.1739 12.1739 19.8261-12.1739z" fill="#69feda" stroke="#393939" stroke-linecap="round" stroke-linejoin="round"/><path d="m21 61.7825v-7.6521l20.1739 12.1739v7.6522z" fill="#393939"/><path d="m21 54.1304.2583-.4281c-.1544-.0932-.347-.096-.5041-.0073-.1571.0886-.2542.255-.2542.4354zm0 7.6521h-.5c0 .1752.0917.3376.2417.4281zm20.1739 12.174-.2583.4281c.1544.0931.347.0959.5041.0073.1571-.0887.2542-.2551.2542-.4354zm0-7.6522h.5c0-.1752-.0917-.3376-.2417-.4281zm-20.6739-12.1739v7.6521h1v-7.6521zm.2417 8.0802 20.1739 12.174.5166-.8562-20.1739-12.1739zm20.9322 11.7459v-7.6522h-1v7.6522zm-.2417-8.0803-20.1739-12.1739-.5166.8562 20.1739 12.1739z" fill="#393939"/><path d="m60.9999 61.7825v-7.6521l-19.8261 12.1739v7.6522z" fill="#fff"/><g clip-rule="evenodd" fill-rule="evenodd"><path d="m61.244 53.694c.158.0884.2559.2553.2559.4364v7.6521c0 .1738-.0902.3352-.2384.4261l-19.826 12.1739c-.1543.0948-.3478.0987-.5058.0103s-.2559-.2553-.2559-.4363v-7.6522c0-.1738.0903-.3352.2384-.4261l19.8261-12.1739c.1543-.0948.3477-.0987.5057-.0103zm-19.5702 12.89v6.4787l18.8261-11.5599v-6.4787z" fill="#393939"/><path d="m20.5 54v-11h1v11z" fill="#393939"/><path d="m40.5 43v-13h1v13z" fill="#393939"/><path d="m40.5 85v-11h1v11z" fill="#393939"/><path d="m60.5 74v-13h1v13z" fill="#393939"/><path d="m21 .5c.2761 0 .5.223858.5.5v11c0 .2761-.2239.5-.5.5s-.5-.2239-.5-.5v-11c0-.276142.2239-.5.5-.5z" fill="#393939"/></g></svg>