<svg height="112" viewBox="0 0 68 112" width="68" xmlns="http://www.w3.org/2000/svg"><g fill="none" fillRule="evenodd" transform="translate(-.530762)"><path d="m34.796262 56.2222-33.296262 18.3703 33.296262 20.0926 32.7223-20.0926z" stroke="#393939" strokeLinecap="round" strokeLinejoin="round" strokeWidth=".93"/><g fillRule="nonzero"><path d="m34.796262 43.5925-33.296262 18.3704 33.296262 20.0926 32.7223-20.0926z" fill="#fff" stroke="#393939" strokeLinecap="round" strokeLinejoin="round"/><path d="m1.5 74.5925v-12.6296l33.296262 20.0926v12.6296z" fill="#393939"/><path d="m1.5 61.9629.258332-.4281c-.15442-.0932-.347066-.096-.50413-.0073-.157064.0886-.254202.255-.254202.4354zm0 12.6296h-.5c0 .1752.091681.3376.241668.4281zm33.296262 20.0926-.2583.4281c.1544.0932.3471.096.5041.0073.1571-.0886.2542-.255.2542-.4354zm0-12.6296h.5c0-.1752-.0916-.3376-.2416-.4281zm-33.796262-20.0926v12.6296h1.000002l-.000002-12.6296zm.241668 13.0577 33.296294 20.0926.5167-.8562-33.29633-20.0926zm34.054594 19.6645v-12.6296h-1v12.6296zm-.2416-13.0577-33.29633-20.0926-.516664.8562 33.296294 20.0926z" fill="#393939"/><path d="m67.518362 74.5925v-12.6296l-32.7222 20.0926v12.6296z" fill="#fff" stroke="#393939" strokeLinecap="round" strokeLinejoin="round"/></g><path d="m34.796262 30.3889-33.296262 18.3704 33.296262 20.0926 32.7223-20.0926z" stroke="#fff" strokeLinecap="round" strokeLinejoin="round" strokeWidth=".93"/><path d="m34.796262 17.7593-33.296262 18.3703 33.296262 20.0926 32.7223-20.0926z" fill="#fff" fillRule="nonzero" stroke="#393939" strokeLinecap="round" strokeLinejoin="round"/><path d="m1.5 48.7593v-12.6297l33.296262 20.0926v12.6297z" fill="#393939" fillRule="nonzero"/><path d="m1.5 36.1296.258332-.4281c-.15442-.0931-.347066-.0959-.50413-.0073-.157064.0887-.254202.2551-.254202.4354zm0 12.6297h-.5c0 .1751.091681.3376.241668.4281zm33.296262 20.0926-.2583.4281c.1544.0931.3471.0959.5041.0073.1571-.0887.2542-.2551.2542-.4354zm0-12.6297h.5c0-.1752-.0916-.3376-.2416-.4281zm-33.796262-20.0926v12.6297h1.000002l-.000002-12.6297zm.241668 13.0578 33.296294 20.0926.5167-.8562-33.29633-20.0926zm34.054594 19.6645v-12.6297h-1v12.6297zm-.2416-13.0578-33.29633-20.0926-.516664.8562 33.296294 20.0926z" fill="#393939" fillRule="nonzero"/><path d="m67.518362 48.7593v-12.6297l-32.7222 20.0926v12.6297z" fill="#fff" fillRule="nonzero" stroke="#393939" strokeLinecap="round" strokeLinejoin="round"/><path d="m1.5 48.7593v13.2037" stroke="#393939" strokeWidth=".93"/><path d="m67.518562 48.7593v13.2037" stroke="#393939" strokeWidth=".93"/><ellipse cx="34.796162" cy="36.7037" fill="#393939" fillRule="nonzero" rx="6.88889" ry="3.44444"/><path d="m34.796162 8v25.2593" stroke="#393939" strokeLinecap="round" strokeLinejoin="round"/><path d="m34.796162 68.8518v32.1482" stroke="#393939" strokeLinecap="round" strokeLinejoin="round"/><path d="m34.296162 36.7037c0 .2762.2238.5.5.5.2761 0 .5-.2238.5-.5zm0-3.4444v3.4444h1v-3.4444z" fill="#fff" fillRule="nonzero"/></g></svg>